<svg id="Capa_1" enable-background="new 0 0 511.921 511.921" height="512" viewBox="0 0 511.921 511.921" width="512" xmlns="http://www.w3.org/2000/svg"><g><path d="m111.539 111.306h-47.5c-15.044 0-27.283 12.239-27.283 27.283v31.91c0 15.044 12.239 27.283 27.283 27.283h47.5c15.044 0 27.283-12.239 27.283-27.283v-31.91c0-15.044-12.239-27.283-27.283-27.283zm7.283 59.193c0 4.016-3.268 7.283-7.283 7.283h-47.5c-4.016 0-7.283-3.268-7.283-7.283v-31.91c0-4.016 3.268-7.283 7.283-7.283h47.5c4.016 0 7.283 3.268 7.283 7.283z"/><path d="m236.226 139.604h-53.098c-14.675 0-26.613 11.938-26.613 26.613v33.25c0 14.675 11.938 26.613 26.613 26.613h53.098c14.675 0 26.613-11.938 26.613-26.613v-33.25c0-14.675-11.939-26.613-26.613-26.613zm6.613 59.863c0 3.646-2.967 6.613-6.613 6.613h-53.098c-3.646 0-6.613-2.967-6.613-6.613v-33.25c0-3.646 2.967-6.613 6.613-6.613h53.098c3.646 0 6.613 2.967 6.613 6.613z"/><path d="m511.822 314.149c0-13.738-11.177-24.915-24.915-24.915h-35.798c0-23.869 0-55.18 0-78.973 0-17.692-14.395-32.087-32.088-32.087h-37.63c0-8.501 0-81.289 0-95.376 0-26.37-21.453-47.823-47.823-47.823h-285.745c-26.37 0-47.823 21.453-47.823 47.823v178.612c0 26.37 21.453 47.823 47.823 47.823h106.186l-8.05 43.483h-26.406c-5.522 0-10 4.478-10 10s4.478 10 10 10h142.286c5.522 0 10-4.478 10-10s-4.478-10-10-10h-26.406l-8.05-43.483h50.748v78.973c0 17.692 14.395 32.087 32.087 32.087h86.807v31.736c0 13.738 11.178 24.916 24.916 24.916h64.967c13.738 0 24.915-11.178 24.915-24.916-.001-53.665.221-18.766-.001-137.88zm-94.798 26.281h74.798v9.863h-30.717c-13.843 0-25.105 11.263-25.105 25.105v15.789c0 13.843 11.263 25.105 25.105 25.105h30.717v9.455h-74.798c0-18.86 0-65.392 0-85.317zm74.798 55.863h-30.717c-2.815 0-5.105-2.29-5.105-5.105v-15.789c0-2.815 2.29-5.105 5.105-5.105h30.717zm0-82.144v6.281h-74.798c.2-5.322-.52-7.015.841-9.027.884-1.308 2.381-2.169 4.075-2.169h64.967c2.71 0 4.915 2.205 4.915 4.915zm-69.883-24.915c-13.681 0-24.915 11.12-24.915 24.915v43.944h-98.894c0-12.126 0-104.793 0-117.719h132.979v48.859c-.139.001-9.311.001-9.17.001zm9.17-78.973v10.113h-132.978v-10.113c0-6.665 5.422-12.087 12.087-12.087h108.804c6.665 0 12.087 5.422 12.087 12.087zm-383.286-155.286h285.745c13.95 0 25.531 10.32 27.519 23.726h-25.769c-5.522 0-10 4.478-10 10s4.478 10 10 10h26.073v79.474h-51.174c-17.692 0-32.087 14.395-32.087 32.087v35.248h-258.13v-146.809h235.318c5.522 0 10-4.478 10-10s-4.478-10-10-10h-235.014c1.988-13.406 13.57-23.726 27.519-23.726zm167.27 297.742h-48.794l8.05-43.483h32.694zm-167.27-63.483c-13.949 0-25.531-10.32-27.519-23.725h257.827v23.725c-26.864 0-202.502 0-230.308 0zm262.395 111.059c-6.665 0-12.087-5.422-12.087-12.087v-10.113h98.894v22.2zm176.689 56.653h-64.967c-2.711 0-4.916-2.205-4.916-4.916v-6.281h74.798v6.281c0 2.711-2.205 4.916-4.915 4.916z"/><path d="m295.344 98.7c5.522 0 10-4.478 10-10s-4.478-10-10-10h-.025c-5.522 0-9.987 4.478-9.987 10s4.489 10 10.012 10z"/><path d="m364.533 251.293h-33.753c-13.112 0-23.78 10.668-23.78 23.78v23.788c0 13.112 10.668 23.78 23.78 23.78h33.753c13.112 0 23.78-10.668 23.78-23.78v-23.788c0-13.112-10.667-23.78-23.78-23.78zm3.78 47.569c0 2.084-1.696 3.78-3.78 3.78h-33.753c-2.084 0-3.78-1.696-3.78-3.78v-23.788c0-2.084 1.696-3.78 3.78-3.78h33.753c2.084 0 3.78 1.696 3.78 3.78z"/></g></svg>