<svg height="512" viewBox="0 0 64 64" width="512" xmlns="http://www.w3.org/2000/svg"><path d="m12 5h2v2h-2z"/><path d="m16 5h2v2h-2z"/><path d="m20 5h2v2h-2z"/><path d="m6 17h2v2h-2z"/><path d="m10 17h2v2h-2z"/><path d="m14 17h2v2h-2z"/><path d="m59 2h-48a3 3 0 0 0 -3 3v9h-3a3 3 0 0 0 -3 3v38a3 3 0 0 0 3 3h2a1 1 0 0 0 0-2h-2a1 1 0 0 1 -1-1v-33h50v33a1 1 0 0 1 -1 1h-22a1 1 0 0 0 0 2h22a3 3 0 0 0 3-3v-9h3a3 3 0 0 0 3-3v-38a3 3 0 0 0 -3-3zm-55 18v-3a1 1 0 0 1 1-1h48a1 1 0 0 1 1 1v3zm56 23a1 1 0 0 1 -1 1h-3v-27a3 3 0 0 0 -3-3h-43v-4h50zm-50-35v-3a1 1 0 0 1 1-1h48a1 1 0 0 1 1 1v3z"/><path d="m16 24h28v2h-28z"/><path d="m12 32h2v2h-2z"/><path d="m16 28h28v2h-28z"/><path d="m12 36h2v2h-2z"/><path d="m12 24h2v2h-2z"/><path d="m12 28h2v2h-2z"/><path d="m19 47a4 4 0 1 0 4 4 4 4 0 0 0 -4-4zm0 6a2 2 0 1 1 2-2 2 2 0 0 1 -2 2z"/><path d="m50.2 36.633-2.83-2.83a1 1 0 0 0 -.707-.293 1 1 0 0 0 -.707.294l-1.824 1.831-.132-.053v-2.582a1 1 0 0 0 -1-1h-4a1 1 0 0 0 -1 1v2.582l-.128.053-1.824-1.835a.839.839 0 0 0 -.708-.294 1 1 0 0 0 -.707.293l-2.83 2.83a1 1 0 0 0 0 1.414l1.83 1.83q-.026.06-.051.123h-2.582a1 1 0 0 0 -1 1v4a1 1 0 0 0 1 1h2.582l.053.128-1.835 1.828a1 1 0 0 0 0 1.415l2.83 2.83a1 1 0 0 0 1.414 0l1.83-1.83.123.051v2.582a1 1 0 0 0 1 1h4a1 1 0 0 0 1-1v-2.582l.123-.051 1.83 1.83a1 1 0 0 0 1.414 0l2.83-2.83a1 1 0 0 0 0-1.415l-1.831-1.824.055-.128h2.582a1 1 0 0 0 1-1v-4a1 1 0 0 0 -1-1h-2.582q-.025-.063-.051-.123l1.83-1.83a1 1 0 0 0 .003-1.414zm-.2 5.367v2h-2.29a1 1 0 0 0 -.957.708 6.034 6.034 0 0 1 -.47 1.142 1.044 1.044 0 0 0 -.123.49 1 1 0 0 0 .3.708l1.62 1.614-1.42 1.414-1.623-1.623a1 1 0 0 0 -1.187-.17 6.034 6.034 0 0 1 -1.142.47 1 1 0 0 0 -.708.957v2.29h-2v-2.29a1 1 0 0 0 -.708-.957 6.034 6.034 0 0 1 -1.142-.47 1 1 0 0 0 -1.187.17l-1.623 1.623-1.415-1.414 1.62-1.614a1.019 1.019 0 0 0 .3-.718 1 1 0 0 0 -.123-.48 6.034 6.034 0 0 1 -.47-1.142 1 1 0 0 0 -.962-.708h-2.29v-2h2.29a1 1 0 0 0 .957-.708 6.034 6.034 0 0 1 .47-1.142 1 1 0 0 0 -.17-1.187l-1.623-1.623 1.414-1.415 1.614 1.62a1.034 1.034 0 0 0 1.2.172 6.034 6.034 0 0 1 1.142-.47 1 1 0 0 0 .706-.957v-2.29h2v2.29a1 1 0 0 0 .708.957 6.034 6.034 0 0 1 1.142.47 1.034 1.034 0 0 0 1.2-.172l1.614-1.62 1.414 1.415-1.623 1.623a1 1 0 0 0 -.17 1.187 6.034 6.034 0 0 1 .47 1.142 1 1 0 0 0 .955.708z"/><path d="m16 32h14v2h-14z"/><path d="m16 36h12v2h-12z"/><path d="m41 39a4 4 0 1 0 4 4 4 4 0 0 0 -4-4zm0 6a2 2 0 1 1 2-2 2 2 0 0 1 -2 2z"/><path d="m30 49a1 1 0 0 0 -1-1h-2.582q-.026-.063-.051-.123l1.83-1.83a1 1 0 0 0 0-1.414l-2.83-2.83a1 1 0 0 0 -.707-.293 1 1 0 0 0 -.707.294l-1.824 1.831-.129-.053v-2.582a1 1 0 0 0 -1-1h-4a1 1 0 0 0 -1 1v2.582l-.128.053-1.824-1.835a1 1 0 0 0 -.707-.294 1 1 0 0 0 -.707.293l-2.834 2.834a1 1 0 0 0 0 1.414l1.83 1.83q-.025.06-.051.123h-2.579a1 1 0 0 0 -1 1v4a1 1 0 0 0 1 1h2.582l.053.128-1.835 1.824a1 1 0 0 0 0 1.415l2.83 2.83a1 1 0 0 0 1.414 0l1.83-1.83.123.051v2.582a1 1 0 0 0 1 1h4a1 1 0 0 0 1-1v-2.582l.123-.051 1.83 1.83a1 1 0 0 0 1.414 0l2.83-2.83a1 1 0 0 0 0-1.415l-1.831-1.824.055-.128h2.582a1 1 0 0 0 1-1zm-2 3h-2.29a1 1 0 0 0 -.957.708 6.034 6.034 0 0 1 -.47 1.142 1.044 1.044 0 0 0 -.123.49 1 1 0 0 0 .295.708l1.62 1.614-1.415 1.414-1.623-1.623a1 1 0 0 0 -1.187-.17 6.034 6.034 0 0 1 -1.142.47 1 1 0 0 0 -.708.957v2.29h-2v-2.29a1 1 0 0 0 -.708-.957 6.034 6.034 0 0 1 -1.142-.47 1 1 0 0 0 -1.187.17l-1.623 1.623-1.415-1.414 1.62-1.614a1.019 1.019 0 0 0 .295-.718 1 1 0 0 0 -.123-.48 6.034 6.034 0 0 1 -.47-1.142 1 1 0 0 0 -.957-.708h-2.29v-2h2.29a1 1 0 0 0 .957-.708 6.034 6.034 0 0 1 .47-1.142 1 1 0 0 0 -.17-1.187l-1.623-1.623 1.414-1.415 1.614 1.62a1.036 1.036 0 0 0 1.2.172 6.034 6.034 0 0 1 1.142-.47 1 1 0 0 0 .706-.957v-2.29h2v2.29a1 1 0 0 0 .708.957 6.034 6.034 0 0 1 1.142.47 1.036 1.036 0 0 0 1.2-.172l1.614-1.62 1.414 1.415-1.623 1.623a1 1 0 0 0 -.17 1.187 6.034 6.034 0 0 1 .47 1.142 1 1 0 0 0 .955.708h2.29z"/></svg>